<svg xmlns="http://www.w3.org/2000/svg" xmlns:xlink="http://www.w3.org/1999/xlink" width="120" height="120" viewBox="0 0 120 120">
  <defs>
    <clipPath id="clip-button_xbox_digital_bumper_light_2">
      <rect width="120" height="120"/>
    </clipPath>
  </defs>
  <g id="button_xbox_digital_bumper_light_2" clip-path="url(#clip-button_xbox_digital_bumper_light_2)">
    <g id="Rectangle_49" data-name="Rectangle 49" transform="translate(14 30)" fill="#2a2a2a" stroke="#fff" stroke-width="4">
      <path d="M10,0H60A34,34,0,0,1,94,34V56a4,4,0,0,1-4,4H4a4,4,0,0,1-4-4V10A10,10,0,0,1,10,0Z" stroke="none"/>
      <path d="M10-2H60A36,36,0,0,1,96,34V56a6,6,0,0,1-6,6H4a6,6,0,0,1-6-6V10A12,12,0,0,1,10-2Z" fill="none"/>
    </g>
    <path id="Rectangle_50" data-name="Rectangle 50" d="M10,0H56A34,34,0,0,1,90,34V52a4,4,0,0,1-4,4H4a4,4,0,0,1-4-4V10A10,10,0,0,1,10,0Z" transform="translate(18 30)" fill="#404040"/>
    <path id="Rectangle_52" data-name="Rectangle 52" d="M6,0H52A30,30,0,0,1,82,30V44a4,4,0,0,1-4,4H4a4,4,0,0,1-4-4V6A6,6,0,0,1,6,0Z" transform="translate(26 34)" fill="#5b5b5b"/>
    <path id="Path_141" data-name="Path 141" d="M-6.675,0l-4.59-8.01h-1.17V0h-5.13V-21.21H-8.8a9.457,9.457,0,0,1,4.26.87,6.008,6.008,0,0,1,2.61,2.385,6.832,6.832,0,0,1,.87,3.465A6.159,6.159,0,0,1-2.34-10.56a6.517,6.517,0,0,1-3.7,2.22L-1,0Zm-5.76-11.52h3.18A3.2,3.2,0,0,0-7-12.2a2.605,2.605,0,0,0,.72-1.995,2.645,2.645,0,0,0-.735-1.98,3.08,3.08,0,0,0-2.235-.72h-3.18Zm26.67.6A5.311,5.311,0,0,1,17.28-9.06a5.092,5.092,0,0,1,1.125,3.27A5.269,5.269,0,0,1,16.59-1.53,7.864,7.864,0,0,1,11.385,0H1.515V-21.21h9.63a7.863,7.863,0,0,1,5.01,1.41,4.841,4.841,0,0,1,1.77,4.02,4.953,4.953,0,0,1-1.02,3.195A4.7,4.7,0,0,1,14.235-10.92Zm-7.59-1.62h3.36q2.67,0,2.67-2.28T9.945-17.1h-3.3Zm3.66,8.37q2.85,0,2.85-2.34a2.229,2.229,0,0,0-.75-1.785,3.171,3.171,0,0,0-2.13-.645H6.645v4.77Z" transform="translate(67 71)" fill="#fff"/>
  </g>
</svg>
