<svg xmlns="http://www.w3.org/2000/svg" xmlns:xlink="http://www.w3.org/1999/xlink" width="120" height="120" viewBox="0 0 120 120">
  <defs>
    <clipPath id="clip-button_xboxone_dpad_dark_5">
      <rect width="120" height="120"/>
    </clipPath>
  </defs>
  <g id="button_xboxone_dpad_dark_5" clip-path="url(#clip-button_xboxone_dpad_dark_5)">
    <g id="Subtraction_43" data-name="Subtraction 43" transform="translate(100 100) rotate(180)" fill="#2a2a2a">
      <path d="M 39.99960327148438 82.00009918212891 C 34.55428314208984 82.00009918212891 29.25528526306152 80.97271728515625 24.2497673034668 78.94651794433594 L 23.00020217895508 78.44071197509766 L 23.00020217895508 77.0926513671875 L 23.00020217895508 57.00040435791016 C 23.00017929077148 57.00041580200195 23.00015258789063 57.00041961669922 23.0001220703125 57.00041961669922 C 22.99961090087891 57.00041961669922 22.99814987182617 56.99907684326172 22.99719047546387 56.99853134155273 L 2.90763783454895 56.99989700317383 L 1.559555530548096 56.99989700317383 L 1.053755521774292 55.75029754638672 C -0.9725621938705444 50.7442512512207 -1.999997496604919 45.44495391845703 -1.999997496604919 39.99960327148438 C -1.999997496604919 34.55427169799805 -0.9726797938346863 29.25527381896973 1.053426027297974 24.24979019165039 L 1.559226036071777 23.00020217895508 L 2.907308340072632 23.00020217895508 L 22.99969863891602 23.00020217895508 C 22.99952507019043 22.99979019165039 23.00099182128906 22.99821853637695 23.00156784057617 22.99720191955566 L 23.00020217895508 2.907308340072632 L 23.00020217895508 1.559226036071777 L 24.24979019165039 1.053426027297974 C 29.25527381896973 -0.9726797938346863 34.55427169799805 -1.999997496604919 39.99960327148438 -1.999997496604919 C 45.44494247436523 -1.999997496604919 50.74423599243164 -0.9725621938705444 55.75029754638672 1.053755521774292 L 56.99989700317383 1.559555530548096 L 56.99989700317383 2.90763783454895 L 56.99989700317383 22.99969482421875 C 56.99991989135742 22.99968338012695 56.99994659423828 22.99967765808105 56.99997711181641 22.99967765808105 C 57.00048828125 22.99967765808105 57.00194931030273 23.00102424621582 57.00290679931641 23.00156784057617 L 77.0926513671875 23.00020217895508 L 78.44071197509766 23.00020217895508 L 78.94651794433594 24.2497673034668 C 80.97271728515625 29.25527381896973 82.00009918212891 34.55428314208984 82.00009918212891 39.99960327148438 C 82.00009918212891 45.44491958618164 80.97262573242188 50.74422454833984 78.94620513916016 55.75032043457031 L 78.44039154052734 56.99989700317383 L 77.09233093261719 56.99989700317383 L 57.00040435791016 56.99989700317383 C 57.00058746337891 57.00030899047852 56.99910736083984 57.00189208984375 56.99853134155273 57.00290679931641 L 56.99989700317383 77.09233093261719 L 56.99989700317383 78.44039154052734 L 55.75033187866211 78.94620513916016 C 50.7442741394043 80.97261810302734 45.44495391845703 82.00009918212891 39.99960327148438 82.00009918212891 Z" stroke="none"/>
      <path d="M 39.99959182739258 80.00010681152344 C 45.18595123291016 80.00010681152344 50.23257827758789 79.02210998535156 54.99990844726563 77.09233856201172 L 54.99990844726563 56.99969100952148 C 54.99990844726563 55.89700698852539 55.89700698852539 54.99990844726563 56.99969100952148 54.99990844726563 L 77.09233856201172 54.99990844726563 C 79.02178192138672 50.23333358764648 80.00010681152344 45.18650817871094 80.00010681152344 39.99959182739258 C 80.00010681152344 34.81326293945313 79.02220916748047 29.76694869995117 77.0926513671875 25.00020599365234 L 56.99969100952148 25.00020599365234 C 55.89700698852539 25.00020599365234 54.99990844726563 24.10309219360352 54.99990844726563 23.00040626525879 L 54.99990844726563 2.90763521194458 C 50.23336410522461 0.9782638549804688 45.1865348815918 6.733921509294305e-06 39.99959182739258 6.733921509294305e-06 C 34.81323623657227 6.733921509294305e-06 29.76692008972168 0.9778496026992798 25.00020599365234 2.907306671142578 L 25.00020599365234 23.00040626525879 C 25.00020599365234 24.10309219360352 24.10309219360352 25.00020599365234 23.00040626525879 25.00020599365234 L 2.907306671142578 25.00020599365234 C 0.9781638979911804 29.76613616943359 6.733921509294305e-06 34.81266403198242 6.733921509294305e-06 39.99959182739258 C 6.733921509294305e-06 45.18596267700195 0.9779638648033142 50.23259353637695 2.90763521194458 54.99990844726563 L 23.00040626525879 54.99990844726563 C 24.10309219360352 54.99990844726563 25.00020599365234 55.89700698852539 25.00020599365234 56.99969100952148 L 25.00020599365234 77.0926513671875 C 29.76616477966309 79.02188873291016 34.81269073486328 80.00010681152344 39.99959182739258 80.00010681152344 M 39.99959182739258 84.00010681152344 C 34.29586410522461 84.00010681152344 28.74436378479004 82.92356109619141 23.49932098388672 80.80039215087891 L 21.00020599365234 79.78876495361328 L 21.00020599365234 77.0926513671875 L 21.00020599365234 58.99990844726563 L 2.90763521194458 58.99990844726563 L 0.2114638835191727 58.99990844726563 L -0.8001361489295959 56.50070571899414 C -2.923407554626465 51.25510787963867 -3.999993324279785 45.70333480834961 -3.999993324279785 39.99959182739258 C -3.999993324279785 34.29584884643555 -2.923521757125854 28.74436378479004 -0.8004646897315979 23.4993782043457 L 0.211149588227272 21.00020599365234 L 2.907306671142578 21.00020599365234 L 21.00020599365234 21.00020599365234 L 21.00020599365234 2.907306671142578 L 21.00020599365234 0.211149588227272 L 23.49939155578613 -0.8004646897315979 C 28.7443790435791 -2.923521757125854 34.29584884643555 -3.999993324279785 39.99959182739258 -3.999993324279785 C 45.70336532592773 -3.999993324279785 51.25514984130859 -2.923407554626465 56.5007209777832 -0.8001361489295959 L 58.99990844726563 0.2114638835191727 L 58.99990844726563 2.90763521194458 L 58.99990844726563 21.00020599365234 L 77.0926513671875 21.00020599365234 L 79.78876495361328 21.00020599365234 L 80.80039215087891 23.49932098388672 C 82.92356109619141 28.7443790435791 84.00010681152344 34.29586410522461 84.00010681152344 39.99959182739258 C 84.00010681152344 45.70329284667969 82.9234619140625 51.25509262084961 80.80009460449219 56.50075149536133 L 79.78846740722656 58.99990844726563 L 77.09233856201172 58.99990844726563 L 58.99990844726563 58.99990844726563 L 58.99990844726563 77.09233856201172 L 58.99990844726563 79.78846740722656 L 56.50076293945313 80.80007934570313 C 51.25514984130859 82.9234619140625 45.70335006713867 84.00010681152344 39.99959182739258 84.00010681152344 Z" stroke="none" fill="#fff"/>
    </g>
    <path id="Subtraction_45" data-name="Subtraction 45" d="M36,72a35.987,35.987,0,0,1-11-1.712V51a4,4,0,0,0-4-4H1.712a36.2,36.2,0,0,1,0-22H21a4,4,0,0,0,4-4V1.712a36.2,36.2,0,0,1,22,0V21a4.005,4.005,0,0,0,4,4H70.289a36.2,36.2,0,0,1,0,22H51a4,4,0,0,0-4,4V70.289A35.986,35.986,0,0,1,36,72Z" transform="translate(96 96) rotate(180)" fill="#2a2a2a"/>
    <path id="Subtraction_46" data-name="Subtraction 46" d="M36,68a37.934,37.934,0,0,1-11-1.617V47a4,4,0,0,0-4-4H1.275a32.4,32.4,0,0,1,.308-19H21a4,4,0,0,0,4-4V1.616a38.235,38.235,0,0,1,22,0V20a4,4,0,0,0,4,4H70.418a32.4,32.4,0,0,1,.307,19H51a4.005,4.005,0,0,0-4,4V66.384A37.933,37.933,0,0,1,36,68Z" transform="translate(96 92) rotate(180)" fill="#404040"/>
    <path id="Polygon_8" data-name="Polygon 8" d="M12,0,24,12H0Z" transform="translate(120 46) rotate(90)" fill="#fff"/>
    <path id="Polygon_9" data-name="Polygon 9" d="M12,0,24,12H0Z" transform="translate(0 70) rotate(-90)" fill="#fff"/>
    <path id="Subtraction_48" data-name="Subtraction 48" d="M23.726,25.873H4v-19H23.418a32.262,32.262,0,0,1,1.582,10,32.315,32.315,0,0,1-1.274,9Z" transform="translate(49 74.873) rotate(180)" fill="#5b5b5b"/>
    <path id="Subtraction_48-2" data-name="Subtraction 48" d="M-4931.582-1022H-4951v-19h19.726a32.348,32.348,0,0,1,1.275,9,32.262,32.262,0,0,1-1.583,10Z" transform="translate(5026 1090)" fill="#5b5b5b"/>
    <rect id="Rectangle_197" data-name="Rectangle 197" width="19" height="2" rx="1" transform="translate(76 49) rotate(90)" fill="#5b5b5b"/>
    <rect id="Rectangle_199" data-name="Rectangle 199" width="19" height="2" rx="1" transform="translate(46 49) rotate(90)" fill="#5b5b5b"/>
  </g>
</svg>
