<svg xmlns="http://www.w3.org/2000/svg" xmlns:xlink="http://www.w3.org/1999/xlink" width="120" height="120" viewBox="0 0 120 120">
  <defs>
    <clipPath id="clip-Button_-_PS_L1">
      <rect width="120" height="120"/>
    </clipPath>
  </defs>
  <g id="Button_-_PS_L1" data-name="Button - PS L1" clip-path="url(#clip-Button_-_PS_L1)">
    <g id="Rectangle_49" data-name="Rectangle 49" transform="translate(14 30)" fill="#2a2a2a" stroke="#fff" stroke-width="4">
      <path d="M34,0H60A34,34,0,0,1,94,34V56a4,4,0,0,1-4,4H4a4,4,0,0,1-4-4V34A34,34,0,0,1,34,0Z" stroke="none"/>
      <path d="M34-2H60A36,36,0,0,1,96,34V56a6,6,0,0,1-6,6H4a6,6,0,0,1-6-6V34A36,36,0,0,1,34-2Z" fill="none"/>
    </g>
    <path id="Rectangle_50" data-name="Rectangle 50" d="M34,0H56A34,34,0,0,1,90,34V52a4,4,0,0,1-4,4H4a4,4,0,0,1-4-4V34A34,34,0,0,1,34,0Z" transform="translate(14 30)" fill="#404040"/>
    <path id="Rectangle_52" data-name="Rectangle 52" d="M30,0H52A30,30,0,0,1,82,30V44a4,4,0,0,1-4,4H4a4,4,0,0,1-4-4V30A30,30,0,0,1,30,0Z" transform="translate(14 34)" fill="#5b5b5b"/>
    <path id="Path_73" data-name="Path 73" d="M-5.61-3.93H1.23V0H-10.74V-21.21h5.13ZM2.16-16.41v-4.8h8.58V0H5.34V-16.41Z" transform="translate(55 71)" fill="#fff"/>
  </g>
</svg>
