<svg xmlns="http://www.w3.org/2000/svg" xmlns:xlink="http://www.w3.org/1999/xlink" width="120" height="120" viewBox="0 0 120 120">
  <defs>
    <clipPath id="clip-Button_-_PS_R1">
      <rect width="120" height="120"/>
    </clipPath>
  </defs>
  <g id="Button_-_PS_R1" data-name="Button - PS R1" clip-path="url(#clip-Button_-_PS_R1)">
    <g id="Rectangle_49" data-name="Rectangle 49" transform="translate(14 30)" fill="#2a2a2a" stroke="#fff" stroke-width="4">
      <path d="M34,0H60A34,34,0,0,1,94,34V56a4,4,0,0,1-4,4H4a4,4,0,0,1-4-4V34A34,34,0,0,1,34,0Z" stroke="none"/>
      <path d="M34-2H60A36,36,0,0,1,96,34V56a6,6,0,0,1-6,6H4a6,6,0,0,1-6-6V34A36,36,0,0,1,34-2Z" fill="none"/>
    </g>
    <path id="Rectangle_50" data-name="Rectangle 50" d="M34,0H56A34,34,0,0,1,90,34V52a4,4,0,0,1-4,4H4a4,4,0,0,1-4-4V34A34,34,0,0,1,34,0Z" transform="translate(18 30)" fill="#404040"/>
    <path id="Rectangle_52" data-name="Rectangle 52" d="M30,0H52A30,30,0,0,1,82,30V44a4,4,0,0,1-4,4H4a4,4,0,0,1-4-4V30A30,30,0,0,1,30,0Z" transform="translate(26 34)" fill="#5b5b5b"/>
    <path id="Path_74" data-name="Path 74" d="M-2.22,0-6.81-8.01H-7.98V0h-5.13V-21.21h8.76a9.457,9.457,0,0,1,4.26.87,6.008,6.008,0,0,1,2.61,2.385,6.832,6.832,0,0,1,.87,3.465,6.159,6.159,0,0,1-1.275,3.93,6.517,6.517,0,0,1-3.7,2.22L3.45,0ZM-7.98-11.52H-4.8A3.2,3.2,0,0,0-2.55-12.2a2.605,2.605,0,0,0,.72-1.995,2.645,2.645,0,0,0-.735-1.98A3.08,3.08,0,0,0-4.8-16.89H-7.98ZM4.53-16.41v-4.8h8.58V0H7.71V-16.41Z" transform="translate(67 71)" fill="#fff"/>
  </g>
</svg>
